HIERARCHY
ROOT Hips
{
	OFFSET 2.231639 107.614326 0.831361
	CHANNELS 6 Xposition Yposition Zposition Xrotation Yrotation Zrotation
	JOINT Chest
	{
		OFFSET 0.589635 13.591431 1.039065
		CHANNELS 3 Xrotation Yrotation Zrotation
		JOINT Chest2
		{
			OFFSET -0.125659 21.306129 2.258243
			CHANNELS 3 Xrotation Yrotation Zrotation
			JOINT Chest3
			{
				OFFSET -0.259441 14.923126 0.230152
				CHANNELS 3 Xrotation Yrotation Zrotation
				JOINT Neck
				{
					OFFSET 0.632337 17.196976 1.574787
					CHANNELS 3 Xrotation Yrotation Zrotation
					JOINT Head
					{
						OFFSET -0.194582 10.350739 1.628472
						CHANNELS 3 Xrotation Yrotation Zrotation
						End Site
						{
							OFFSET -0.190356 10.361908 1.556377
						}
					}
				}
				JOINT LeftCollar
				{
					OFFSET 4.805201 12.789536 3.891320
					CHANNELS 3 Xrotation Yrotation Zrotation
					JOINT LeftUpArm
					{
						OFFSET 14.015066 -5.384567 -9.115026
						CHANNELS 3 Xrotation Yrotation Zrotation
						JOINT LeftLowArm
						{
							OFFSET 2.926603 -33.510544 -2.864701
							CHANNELS 3 Xrotation Yrotation Zrotation
							JOINT LeftHand
							{
								OFFSET 2.089745 -29.615097 4.418836
								CHANNELS 3 Xrotation Yrotation Zrotation
								End Site
								{
									OFFSET 0.456730 -6.472549 0.965761
								}
							}
						}
					}
				}
				JOINT RightCollar
				{
					OFFSET -3.598683 13.064667 4.262955
					CHANNELS 3 Xrotation Yrotation Zrotation
					JOINT RightUpArm
					{
						OFFSET -14.168253 -5.952698 -8.504261
						CHANNELS 3 Xrotation Yrotation Zrotation
						JOINT RightLowArm
						{
							OFFSET -4.070501 -33.432083 -2.337135
							CHANNELS 3 Xrotation Yrotation Zrotation
							JOINT RightHand
							{
								OFFSET -1.992155 -28.783897 8.274883
								CHANNELS 3 Xrotation Yrotation Zrotation
								End Site
								{
									OFFSET -0.435406 -6.291008 1.808560
								}
							}
						}
					}
				}
			}
		}
	}
	JOINT LeftUpLeg
	{
		OFFSET 10.011374 -0.436699 0.028382
		CHANNELS 3 Xrotation Yrotation Zrotation
		JOINT LeftLowLeg
		{
			OFFSET 5.142191 -47.002968 -2.875474
			CHANNELS 3 Xrotation Yrotation Zrotation
			JOINT LeftFoot
			{
				OFFSET 2.557264 -42.850540 -12.564218
				CHANNELS 3 Xrotation Yrotation Zrotation
				JOINT LeftToe
				{
					OFFSET 6.411560 -17.571716 14.480542
					CHANNELS 3 Xrotation Yrotation Zrotation
					End Site
					{
						OFFSET 9.072298 -3.533464 21.558455
					}
				}
			}
		}
	}
	JOINT RightUpLeg
	{
		OFFSET -10.011388 0.436501 -0.028397
		CHANNELS 3 Xrotation Yrotation Zrotation
		JOINT RightLowLeg
		{
			OFFSET -2.711076 -47.289707 0.587680
			CHANNELS 3 Xrotation Yrotation Zrotation
			JOINT RightFoot
			{
				OFFSET -0.716718 -42.522995 -13.851372
				CHANNELS 3 Xrotation Yrotation Zrotation
				JOINT RightToe
				{
					OFFSET -3.380398 -17.967228 15.010275
					CHANNELS 3 Xrotation Yrotation Zrotation
					End Site
					{
						OFFSET -6.750717 -4.182777 22.282017
					}
				}
			}
		}
	}
}
MOTION
Frames: 15
Frame Time: 0.033333
-7.994208 118.390533 0.824397 -14.192815 9.364389 21.882150 17.901955 -0.912777 -2.574868 3.935949 5.362804 -9.933581 -5.708634 0.754781 1.629994 4.499119 -3.039665 1.009337 0.000000 0.000000 0.000000 -1.735999 -7.336952 1.799407 1.849620 4.953203 13.583339 -28.843602 2.565527 -4.098692 -0.000003 -0.000002 0.000001 3.445680 21.522399 -18.714047 -28.314464 11.622486 3.531673 -41.888563 -1.302432 13.294588 -0.000006 -0.000003 0.000003 -35.253994 -9.536695 21.428284 49.047561 -13.462382 -39.941621 32.026013 -22.299606 -0.785125 -0.000001 -0.000000 0.000001 1.577411 -0.960263 -20.877102 15.843667 2.260992 2.622549 9.687540 -0.056094 0.031743 -0.000000 0.000002 0.000001 
-7.613160 118.129669 0.896688 -10.600855 7.132411 18.141406 13.729806 -0.654531 -0.630934 3.744741 5.206232 -9.661071 -4.659447 2.235002 2.044038 2.862484 -1.688985 0.033070 -0.000001 -0.000002 -0.000001 -2.039801 -3.960334 1.999946 4.979581 7.831111 9.387104 -32.447773 1.934935 -3.006127 -0.000002 -0.000001 -0.000002 2.586415 18.746096 -17.905816 -24.721463 9.277821 4.169380 -41.530747 -1.213856 13.859978 -0.000001 -0.000002 0.000001 -28.952410 -5.053861 13.471725 44.027386 -9.118327 -29.400816 28.099301 -23.011076 -1.167137 -0.000003 -0.000002 -0.000000 -2.105464 -0.118958 -18.110547 16.532966 2.563914 1.726911 10.216099 1.466165 -0.037091 -0.000001 0.000004 -0.000001 
-7.163240 117.787460 0.938225 -9.315895 5.660474 14.356549 12.059863 -0.612690 0.982012 2.819265 4.898286 -8.754321 -4.072569 2.815904 2.514121 0.715294 -0.464118 -0.722636 -0.000001 0.000000 -0.000001 -2.195254 -1.437575 1.564240 8.147664 9.793914 6.694729 -30.623635 1.476794 -2.478169 0.000001 -0.000002 0.000000 1.629790 15.893072 -14.874861 -19.449792 7.035357 2.744294 -40.859858 -1.850831 17.841632 -0.000000 0.000004 0.000000 -20.805591 -1.773618 6.579933 35.535582 -5.256196 -19.938091 20.825090 -23.230051 -1.756981 -0.000004 0.000001 0.000001 -4.151044 0.253958 -15.362861 17.486140 2.729812 2.142333 10.848150 1.318806 -0.201106 0.000002 0.000000 0.000002 
-6.700080 117.399490 0.984068 -8.330950 5.186892 11.303898 10.506357 -0.598478 1.972124 1.917779 4.441277 -7.563728 -3.147225 2.807334 2.652935 -1.163049 0.500626 -1.141876 0.000000 0.000001 0.000000 -1.902914 -0.441424 1.366924 8.942588 9.389075 4.275268 -28.462467 0.809532 -2.244257 0.000001 -0.000002 -0.000003 1.154322 13.296287 -12.262214 -15.622825 6.176747 1.287932 -40.291911 -1.507397 19.201438 -0.000002 -0.000002 -0.000000 -13.868811 -0.136683 1.673430 27.931270 -3.084298 -12.371511 14.674305 -20.787005 -2.168761 0.000004 0.000001 -0.000000 -5.797454 0.573885 -13.007993 17.496062 2.615944 2.652282 10.292313 0.566464 -0.248559 0.000000 -0.000001 -0.000000 
-6.185402 116.895325 1.014416 -6.504052 5.390069 8.123275 8.995288 -0.602983 2.207392 0.747733 3.498108 -5.800260 -2.241303 2.576029 2.771354 -3.427176 0.398857 -0.908785 -0.000002 -0.000000 0.000000 -1.231564 -0.202472 1.218626 9.742949 9.222661 2.950704 -23.123973 0.955437 -3.045234 -0.000001 0.000000 0.000001 0.795712 10.810525 -8.945378 -12.012329 5.295823 -1.180185 -38.135460 -1.062005 18.912778 0.000001 0.000002 0.000000 -7.173952 0.560968 -0.834278 18.838553 -1.802799 -6.615544 9.821980 -18.380227 -2.274077 -0.000001 -0.000000 0.000000 -9.220067 1.105165 -10.488923 19.520110 2.723842 3.469814 9.048588 -1.538821 -0.313503 0.000000 0.000002 -0.000000 
-5.598223 116.332253 1.046525 -4.968249 4.857848 5.706253 7.333640 -0.511191 1.927067 -0.639086 2.519680 -4.024636 -1.073817 2.128594 2.378085 -3.325493 -0.083633 -0.634226 0.000000 -0.000001 0.000001 -1.033960 0.866777 1.351411 9.985600 8.652006 1.487053 -17.296708 0.544189 -3.402432 -0.000001 -0.000006 -0.000001 0.562236 8.588860 -6.570362 -8.285071 3.823922 -2.246585 -35.738145 0.380351 15.910659 -0.000004 -0.000002 0.000001 -3.515775 0.721471 -1.644345 12.143536 -1.099263 -2.799498 5.640023 -17.176283 -2.150023 -0.000002 0.000003 0.000001 -9.981505 1.058145 -8.108801 19.273679 2.260880 2.948823 7.395034 -2.568139 -0.421361 -0.000002 0.000004 0.000000 
-5.007629 115.793144 1.067326 -3.812725 4.290120 4.333023 5.888579 -0.439828 1.871438 -1.144244 1.883099 -3.053986 -0.634565 2.005373 1.987186 -3.113764 -0.322072 -0.558011 -0.000001 0.000000 0.000000 -1.201125 1.746736 1.450793 9.829135 8.717913 0.752436 -12.311717 0.919113 -3.754984 -0.000000 -0.000002 0.000001 0.149871 6.925373 -5.569784 -5.462659 1.804233 -2.633556 -32.190986 0.468426 14.920861 -0.000001 -0.000002 0.000001 -1.849552 0.746729 -1.863384 7.868881 -0.775594 -0.571135 3.427959 -16.936084 -2.084626 -0.000001 -0.000000 0.000001 -9.289135 0.828230 -6.645705 17.433057 1.798972 2.284643 6.536323 -2.950744 -0.497231 0.000001 0.000002 0.000001 
-4.377105 115.262543 1.063256 -3.319387 3.786204 3.518093 5.276192 -0.444884 1.753857 -1.543628 1.331372 -2.230960 -0.436720 1.670751 1.558593 -2.982947 -0.187858 -0.932491 -0.000002 -0.000000 -0.000000 -0.864228 1.499696 0.887895 8.206594 7.468800 -0.222880 -7.520260 0.897465 -2.939915 0.000002 -0.000002 0.000000 0.264653 5.990394 -4.996004 -5.526370 2.110923 -2.037880 -27.833499 1.354934 10.383855 -0.000000 0.000001 0.000003 -0.045235 0.809982 -1.791373 3.826140 -0.426303 0.113997 1.608915 -16.471652 -2.048335 -0.000001 -0.000000 0.000000 -9.090704 0.741034 -5.526440 16.141593 1.491132 1.176339 5.227678 -3.071894 -0.599449 -0.000002 0.000000 -0.000000 
-3.703272 114.685181 1.053297 -3.639551 3.798749 3.273114 4.210345 -0.424438 1.666744 -1.951943 1.101982 -1.752036 0.378993 1.360221 1.183390 -2.602789 0.051217 -0.843275 -0.000001 -0.000001 0.000000 -0.740871 1.692790 0.384521 7.041466 6.450385 -0.960257 -6.283580 0.786974 -2.099570 0.000001 -0.000004 0.000001 0.200450 4.467040 -4.299426 -3.915096 1.301799 -1.750005 -23.680679 1.560933 7.110871 -0.000007 0.000000 0.000001 2.108074 0.725972 -2.542684 0.368568 -0.088310 0.615202 0.885209 -14.098992 -1.746201 -0.000000 0.000002 -0.000000 -8.251505 0.770710 -5.220872 15.504646 1.426277 0.605599 5.127463 -4.662658 -0.429236 0.000001 0.000000 0.000000 
-3.044363 114.118050 1.042243 -3.736315 3.298338 3.068784 3.674535 -0.426082 1.781827 -3.818537 1.368379 -1.819645 2.593280 1.343900 1.343416 -3.664559 0.641607 -0.964890 -0.000002 -0.000001 0.000000 -0.774708 2.018117 -0.005069 6.825278 6.256045 -1.125876 -4.979640 1.235323 -1.173019 0.000001 -0.000003 0.000001 0.107268 3.773920 -3.503944 -3.235243 1.073986 -2.012240 -20.553668 1.159264 4.835504 -0.000000 0.000000 0.000001 2.814386 0.555901 -3.175956 -0.576755 -0.047992 0.947512 -0.368482 -11.949994 -1.467226 -0.000001 0.000002 -0.000000 -8.382778 0.921879 -5.107799 15.469649 1.516546 0.338411 4.514606 -5.504522 -0.247666 0.000000 0.000002 -0.000001 
-2.377833 113.527267 1.033466 -3.430911 3.145124 2.533602 3.474227 -0.465317 2.203336 -4.897315 1.465230 -1.696953 3.268144 1.135812 1.199175 -2.469253 0.560693 -0.718550 -0.000001 0.000000 0.000000 -0.563153 1.331816 -0.277407 5.580574 5.186448 -0.886395 -3.352706 1.508406 -0.663552 0.000002 -0.000004 0.000001 0.105504 3.098802 -2.838942 -2.522138 0.948580 -2.087233 -17.302548 0.786839 2.711742 0.000001 0.000002 -0.000001 2.856425 0.342769 -3.252609 -0.648781 -0.156926 0.942035 -1.950130 -10.433250 -1.140268 -0.000001 0.000001 -0.000000 -8.555433 1.088518 -4.971276 15.068801 1.636894 0.491552 3.938267 -5.886383 -0.151413 -0.000000 -0.000001 0.000001 
-1.715660 112.944542 1.020639 -3.903548 2.602770 2.007596 3.216388 -0.494115 2.404018 -4.342881 1.251357 -1.307744 2.740364 0.882084 0.731067 -1.781775 0.713637 -0.316250 -0.000001 0.000000 -0.000001 -0.325117 0.724511 -0.817345 3.559084 3.449425 -0.418485 -2.495221 1.777401 -0.030946 0.000001 -0.000000 0.000001 -0.184561 1.129363 -1.771756 -2.310553 1.227023 -2.438928 -13.230963 -0.099548 1.193938 -0.000002 0.000000 -0.000000 3.625134 0.096173 -3.352728 -1.057967 -0.337220 0.822738 -2.244278 -8.312892 -0.782526 -0.000001 -0.000002 -0.000001 -7.875060 1.161348 -4.905721 14.503261 1.743240 0.662110 3.348928 -5.891662 -0.002312 -0.000001 -0.000002 0.000001 
-1.094361 112.408539 1.001352 -4.086875 2.776318 1.557166 3.333591 -0.527689 2.648569 -3.562913 0.942768 -0.936462 2.078821 0.645124 0.294902 -1.968204 0.590254 -0.043441 -0.000001 0.000000 -0.000000 -0.169713 -0.003964 -1.065740 2.148392 2.252733 -0.159912 -2.142836 1.886570 0.659734 0.000001 -0.000005 0.000001 -0.354081 -0.132702 -1.281462 -2.132689 1.368551 -2.469802 -11.535531 -0.514851 -0.047442 -0.000001 -0.000000 -0.000001 4.025162 0.026045 -3.326874 -1.484646 -0.355254 0.927117 -2.138802 -7.021176 -0.592550 -0.000001 -0.000000 0.000001 -8.207811 1.253193 -4.663700 14.306563 1.744740 0.652613 2.941830 -6.100081 0.043386 -0.000000 0.000002 0.000000 
-0.501745 111.895172 0.975275 -3.718365 2.691078 1.261066 2.312696 -0.454524 2.479273 -0.668483 0.575069 -0.651426 -0.047281 0.302006 0.058270 -1.737511 0.368547 0.103911 -0.000001 0.000000 -0.000000 -0.148087 -0.243624 -0.873876 1.543423 2.032854 -0.090160 -2.899333 2.193253 1.110645 0.000001 -0.000004 -0.000001 -0.435256 0.036845 -1.165027 -1.233357 0.492814 -2.122162 -10.914345 -1.061549 -1.341457 -0.000004 -0.000002 -0.000000 3.805369 0.016302 -3.566747 -1.772155 -0.433203 0.912229 -2.300565 -4.701423 -0.233785 -0.000001 -0.000000 0.000000 -9.260014 1.356270 -4.378159 14.555954 1.761969 0.349851 3.048043 -6.675412 -0.026747 -0.000000 0.000002 0.000001 
0.058243 111.403336 0.950180 -2.349308 1.562143 1.054451 1.007363 -0.356537 2.129419 0.624435 0.506636 -0.766263 -0.815339 0.930450 0.421452 -3.326512 0.251693 0.146938 -0.000002 -0.000000 0.000000 -0.026168 -2.311732 -0.791432 0.876784 1.764760 -0.187629 -1.489572 2.247275 2.050731 -0.000000 -0.000006 -0.000001 -0.360709 0.924596 -1.014645 -1.033359 0.083915 -1.994644 -10.076153 -0.832033 -2.935660 -0.000003 0.000003 -0.000001 2.655457 0.164842 -3.820840 -1.515084 -0.189471 0.698264 -2.971908 -2.636302 0.096513 -0.000001 -0.000000 0.000000 -11.079484 1.412818 -4.026145 14.927986 1.596213 -0.441783 2.738862 -5.738988 -0.096722 -0.000000 -0.000002 0.000000 
